<svg xmlns="http://www.w3.org/2000/svg" width="22" height="23" viewBox="0 0 22 23"><g><g><path fill="#323232" d="M1.176 22.818l-.012-.011A.747.747 0 0 1 .672 23a.763.763 0 0 1-.758-.767c0-.191.077-.362.192-.495l-.001-.005.013-.015c.014-.017.027-.028.043-.043l7.372-7.441c.371.35.768.675 1.192.961zM14.325 0c4.187 0 7.585 3.433 7.585 7.667 0 4.233-3.398 7.666-7.585 7.666-4.19 0-7.585-3.433-7.585-7.666C6.74 3.433 10.136 0 14.325 0c0 0-4.188 0 0 0zm0 1.533c-3.346 0-6.068 2.751-6.068 6.134 0 3.382 2.722 6.133 6.068 6.133 3.346 0 6.068-2.751 6.068-6.133 0-3.383-2.722-6.134-6.068-6.134 0 0 3.346 0 0 0z"/></g></g></svg>